<svg width="83" height="43" viewBox="0 0 83 43" fill="none" xmlns="http://www.w3.org/2000/svg">
<path d="M4.522 10.166C4.794 10.166 5.07733 10.234 5.372 10.37C5.66667 10.506 5.89333 10.6987 6.052 10.948L14.688 24.106L13.226 24.038L22.032 10.948C22.3947 10.4267 22.8593 10.166 23.426 10.166C23.8793 10.166 24.276 10.336 24.616 10.676C24.9787 10.9933 25.16 11.4013 25.16 11.9V32.266C25.16 32.7647 25.0013 33.184 24.684 33.524C24.3667 33.8413 23.9473 34 23.426 34C22.882 34 22.44 33.8413 22.1 33.524C21.7827 33.184 21.624 32.7647 21.624 32.266V15.028L22.712 15.266L15.232 26.656C15.0733 26.86 14.8693 27.0413 14.62 27.2C14.3707 27.336 14.11 27.3927 13.838 27.37C13.5887 27.3927 13.328 27.336 13.056 27.2C12.8067 27.0413 12.6027 26.86 12.444 26.656L5.236 15.436L6.052 14.076V32.266C6.052 32.7647 5.89333 33.184 5.576 33.524C5.28133 33.8413 4.88467 34 4.386 34C3.91 34 3.51333 33.8413 3.196 33.524C2.90133 33.184 2.754 32.7647 2.754 32.266V11.9C2.754 11.424 2.924 11.016 3.264 10.676C3.62667 10.336 4.046 10.166 4.522 10.166ZM32.479 10.166C32.751 10.166 33.0344 10.234 33.329 10.37C33.6237 10.506 33.8504 10.6987 34.009 10.948L42.645 24.106L41.183 24.038L49.989 10.948C50.3517 10.4267 50.8164 10.166 51.383 10.166C51.8364 10.166 52.233 10.336 52.573 10.676C52.9357 10.9933 53.117 11.4013 53.117 11.9V32.266C53.117 32.7647 52.9584 33.184 52.641 33.524C52.3237 33.8413 51.9044 34 51.383 34C50.839 34 50.397 33.8413 50.057 33.524C49.7397 33.184 49.581 32.7647 49.581 32.266V15.028L50.669 15.266L43.189 26.656C43.0304 26.86 42.8264 27.0413 42.577 27.2C42.3277 27.336 42.067 27.3927 41.795 27.37C41.5457 27.3927 41.285 27.336 41.013 27.2C40.7637 27.0413 40.5597 26.86 40.401 26.656L33.193 15.436L34.009 14.076V32.266C34.009 32.7647 33.8504 33.184 33.533 33.524C33.2384 33.8413 32.8417 34 32.343 34C31.867 34 31.4704 33.8413 31.153 33.524C30.8584 33.184 30.711 32.7647 30.711 32.266V11.9C30.711 11.424 30.881 11.016 31.221 10.676C31.5837 10.336 32.003 10.166 32.479 10.166Z" fill="url(#paint0_linear_38_104)"/>
<rect y="41" width="56" height="2" fill="#8A4FFF"/>
<path d="M68.098 37.2011C68.4876 37.1841 68.8607 37.0176 69.1478 36.7148L71.1733 34.5044L65.6467 29.4306L63.6203 31.6211C63.0475 32.2567 63.0889 33.2058 63.7136 33.759L67.0198 36.8077C67.3321 37.0844 67.7183 37.2176 68.098 37.2011ZM71.8516 33.7641L79.5902 25.3085L77.0204 25.1404L76.7407 22.8604L74.4554 22.79L74.054 20.2451L66.3155 28.7007M80.139 24.3536L81.5955 17.5936L74.98 19.6742L75.314 21.8217L77.6292 21.8907L77.9102 24.2007" fill="#8A4FFF"/>
<defs>
<linearGradient id="paint0_linear_38_104" x1="19.122" y1="21" x2="59.0316" y2="32.104" gradientUnits="userSpaceOnUse">
<stop offset="0.260417" stop-color="#A77BFF"/>
<stop offset="1" stop-color="#6F3DD1"/>
</linearGradient>
</defs>
</svg>
