<svg width="21" height="21" viewBox="0 0 21 21" fill="none" xmlns="http://www.w3.org/2000/svg">
<path d="M19.8588 8.74835C19.9722 9.40073 20.0287 10.0617 20.0277 10.7239C20.0277 13.6811 18.9707 16.1815 17.1312 17.8739H17.1337C15.5251 19.3598 13.3138 20.22 10.692 20.22C8.11413 20.22 5.6419 19.196 3.8191 17.3732C1.99631 15.5504 0.972275 13.0781 0.972275 10.5003C0.972275 7.9225 1.99631 5.45026 3.8191 3.62747C5.6419 1.80467 8.11413 0.78064 10.692 0.78064C13.1048 0.752382 15.435 1.65885 17.1944 3.31019L14.4194 6.08516C13.4164 5.12895 12.0776 4.60532 10.692 4.6272C8.15633 4.6272 6.00221 6.33787 5.23435 8.64143C4.82723 9.8485 4.82723 11.1558 5.23435 12.3629H5.238C6.0095 14.6628 8.15998 16.3734 10.6956 16.3734C12.0053 16.3734 13.1304 16.0381 14.0027 15.4452H13.9991C14.5056 15.1096 14.9389 14.6749 15.2728 14.1673C15.6067 13.6597 15.8343 13.0896 15.9418 12.4916H10.692V8.74956L19.8588 8.74835Z" fill="#0C0C0C"/>
</svg>
