<svg width="21" height="21" viewBox="0 0 21 21" fill="none" xmlns="http://www.w3.org/2000/svg">
<path d="M10.5011 0.78C4.98411 0.777769 0.515625 5.24402 0.515625 10.7566C0.515625 15.1157 3.31094 18.8212 7.20385 20.1821C7.72811 20.3137 7.6478 19.9411 7.6478 19.6868V17.9579C4.62047 18.3126 4.49777 16.3092 4.29476 15.9746C3.88428 15.2741 2.91384 15.0956 3.20385 14.761C3.8932 14.4063 4.59593 14.8502 5.41021 16.0527C5.99916 16.925 7.14808 16.7777 7.73034 16.6327C7.8575 16.1085 8.12967 15.64 8.50446 15.2763C5.36782 14.7142 4.06052 12.8 4.06052 10.5245C4.06052 9.42025 4.42415 8.40519 5.13804 7.58645C4.68294 6.23676 5.18043 5.08116 5.24735 4.90938C6.5435 4.79338 7.89096 5.83743 7.99581 5.91998C8.73201 5.72143 9.57306 5.61658 10.5145 5.61658C11.4604 5.61658 12.3037 5.72589 13.0466 5.92667C13.2987 5.73481 14.548 4.83799 15.7526 4.94731C15.8173 5.11909 16.3037 6.24792 15.8753 7.57976C16.5981 8.40073 16.9662 9.42471 16.9662 10.5312C16.9662 12.8112 15.65 14.7275 12.5045 15.2808C12.7739 15.5458 12.9878 15.8618 13.1337 16.2103C13.2797 16.5589 13.3547 16.933 13.3544 17.3109V19.8207C13.3723 20.0214 13.3544 20.22 13.6891 20.22C17.64 18.8882 20.4844 15.1559 20.4844 10.7588C20.4844 5.24402 16.0137 0.78 10.5011 0.78Z" fill="#F6F8FF"/>
</svg>
