<svg width="203" height="43" viewBox="0 0 203 43" fill="none" xmlns="http://www.w3.org/2000/svg">
<path d="M4.522 10.166C4.794 10.166 5.07733 10.234 5.372 10.37C5.66667 10.506 5.89333 10.6987 6.052 10.948L14.688 24.106L13.226 24.038L22.032 10.948C22.3947 10.4267 22.8593 10.166 23.426 10.166C23.8793 10.166 24.276 10.336 24.616 10.676C24.9787 10.9933 25.16 11.4013 25.16 11.9V32.266C25.16 32.7647 25.0013 33.184 24.684 33.524C24.3667 33.8413 23.9473 34 23.426 34C22.882 34 22.44 33.8413 22.1 33.524C21.7827 33.184 21.624 32.7647 21.624 32.266V15.028L22.712 15.266L15.232 26.656C15.0733 26.86 14.8693 27.0413 14.62 27.2C14.3707 27.336 14.11 27.3927 13.838 27.37C13.5887 27.3927 13.328 27.336 13.056 27.2C12.8067 27.0413 12.6027 26.86 12.444 26.656L5.236 15.436L6.052 14.076V32.266C6.052 32.7647 5.89333 33.184 5.576 33.524C5.28133 33.8413 4.88467 34 4.386 34C3.91 34 3.51333 33.8413 3.196 33.524C2.90133 33.184 2.754 32.7647 2.754 32.266V11.9C2.754 11.424 2.924 11.016 3.264 10.676C3.62667 10.336 4.046 10.166 4.522 10.166ZM38.667 34.34C36.7857 34.34 35.1537 33.9547 33.771 33.184C32.3884 32.3907 31.3117 31.314 30.541 29.954C29.793 28.5713 29.419 26.996 29.419 25.228C29.419 23.2333 29.8157 21.5333 30.609 20.128C31.425 18.7 32.479 17.612 33.771 16.864C35.063 16.0933 36.4344 15.708 37.885 15.708C38.9957 15.708 40.0497 15.9347 41.047 16.388C42.0444 16.8187 42.9284 17.4307 43.699 18.224C44.4924 18.9947 45.1157 19.9127 45.569 20.978C46.0224 22.0207 46.2604 23.1653 46.283 24.412C46.2604 24.8653 46.079 25.2393 45.739 25.534C45.399 25.8287 45.0024 25.976 44.549 25.976H31.323L30.507 23.086H43.291L42.645 23.698V22.848C42.5997 22.0547 42.339 21.3633 41.863 20.774C41.387 20.162 40.7977 19.6973 40.095 19.38C39.3924 19.04 38.6557 18.87 37.885 18.87C37.205 18.87 36.5477 18.9833 35.913 19.21C35.301 19.414 34.7457 19.754 34.247 20.23C33.771 20.706 33.3857 21.3407 33.091 22.134C32.819 22.9047 32.683 23.868 32.683 25.024C32.683 26.2707 32.9437 27.3587 33.465 28.288C33.9864 29.2173 34.689 29.9427 35.573 30.464C36.457 30.9627 37.4317 31.212 38.497 31.212C39.3357 31.212 40.027 31.1327 40.571 30.974C41.115 30.7927 41.5684 30.5773 41.931 30.328C42.2937 30.0787 42.611 29.8407 42.883 29.614C43.223 29.41 43.563 29.308 43.903 29.308C44.311 29.308 44.651 29.4553 44.923 29.75C45.195 30.022 45.331 30.3507 45.331 30.736C45.331 31.2347 45.0817 31.688 44.583 32.096C43.971 32.6853 43.121 33.2067 42.033 33.66C40.9677 34.1133 39.8457 34.34 38.667 34.34ZM59.1021 15.81C60.7794 15.81 62.0714 16.2293 62.9781 17.068C63.8848 17.884 64.4854 18.9947 64.7801 20.4L64.2361 20.23L64.4741 19.686C64.7688 19.0967 65.2108 18.5073 65.8001 17.918C66.4121 17.306 67.1374 16.8073 67.9761 16.422C68.8148 16.014 69.7101 15.81 70.6621 15.81C72.2261 15.81 73.4388 16.15 74.3001 16.83C75.1614 17.4873 75.7621 18.3827 76.1021 19.516C76.4421 20.6267 76.6121 21.8733 76.6121 23.256V32.266C76.6121 32.7647 76.4534 33.184 76.1361 33.524C75.8188 33.8413 75.4108 34 74.9121 34C74.4361 34 74.0281 33.8413 73.6881 33.524C73.3708 33.184 73.2121 32.7647 73.2121 32.266V23.29C73.2121 22.4967 73.0988 21.7713 72.8721 21.114C72.6681 20.4567 72.2941 19.9353 71.7501 19.55C71.2288 19.142 70.5034 18.938 69.5741 18.938C68.6901 18.938 67.8968 19.142 67.1941 19.55C66.5141 19.9353 65.9814 20.4567 65.5961 21.114C65.2108 21.7713 65.0181 22.4967 65.0181 23.29V32.266C65.0181 32.7647 64.8594 33.184 64.5421 33.524C64.2248 33.8413 63.8168 34 63.3181 34C62.8194 34 62.4114 33.8413 62.0941 33.524C61.7768 33.184 61.6181 32.7647 61.6181 32.266V23.256C61.6181 22.4627 61.5048 21.7373 61.2781 21.08C61.0741 20.4227 60.7114 19.9013 60.1901 19.516C59.6688 19.1307 58.9434 18.938 58.0141 18.938C57.1301 18.938 56.3481 19.1307 55.6681 19.516C54.9881 19.9013 54.4554 20.4227 54.0701 21.08C53.7074 21.7373 53.5261 22.4627 53.5261 23.256V32.266C53.5261 32.7647 53.3561 33.184 53.0161 33.524C52.6988 33.8413 52.3021 34 51.8261 34C51.3274 34 50.9194 33.8413 50.6021 33.524C50.2848 33.184 50.1261 32.7647 50.1261 32.266V17.85C50.1261 17.3513 50.2848 16.9433 50.6021 16.626C50.9194 16.286 51.3274 16.116 51.8261 16.116C52.3021 16.116 52.6988 16.286 53.0161 16.626C53.3561 16.9433 53.5261 17.3513 53.5261 17.85V19.856L52.8801 20.23C53.0388 19.7313 53.2994 19.2213 53.6621 18.7C54.0248 18.1787 54.4781 17.7027 55.0221 17.272C55.5888 16.8413 56.2121 16.49 56.8921 16.218C57.5721 15.946 58.3088 15.81 59.1021 15.81ZM98.5062 25.058C98.5062 26.8713 98.1096 28.4807 97.3162 29.886C96.5229 31.2687 95.4462 32.3567 94.0862 33.15C92.7262 33.9433 91.1962 34.34 89.4962 34.34C87.7962 34.34 86.2662 33.9433 84.9062 33.15C83.5462 32.3567 82.4582 31.2687 81.6422 29.886C80.8489 28.4807 80.4522 26.8713 80.4522 25.058C80.4522 23.222 80.8489 21.6127 81.6422 20.23C82.4582 18.8247 83.5462 17.7253 84.9062 16.932C86.2662 16.116 87.7962 15.708 89.4962 15.708C91.1962 15.708 92.7262 16.116 94.0862 16.932C95.4462 17.7253 96.5229 18.8247 97.3162 20.23C98.1096 21.6127 98.5062 23.222 98.5062 25.058ZM95.1062 25.058C95.1062 23.8113 94.8569 22.7347 94.3582 21.828C93.8596 20.8987 93.1796 20.1733 92.3182 19.652C91.4796 19.108 90.5389 18.836 89.4962 18.836C88.4536 18.836 87.5016 19.108 86.6402 19.652C85.7789 20.1733 85.0989 20.8987 84.6002 21.828C84.1016 22.7347 83.8522 23.8113 83.8522 25.058C83.8522 26.2593 84.1016 27.3247 84.6002 28.254C85.0989 29.1833 85.7789 29.9087 86.6402 30.43C87.5016 30.9513 88.4536 31.212 89.4962 31.212C90.5389 31.212 91.4796 30.9513 92.3182 30.43C93.1796 29.9087 93.8596 29.1833 94.3582 28.254C94.8569 27.3247 95.1062 26.2593 95.1062 25.058ZM104.497 10.166C104.769 10.166 105.052 10.234 105.347 10.37C105.641 10.506 105.868 10.6987 106.027 10.948L114.663 24.106L113.201 24.038L122.007 10.948C122.369 10.4267 122.834 10.166 123.401 10.166C123.854 10.166 124.251 10.336 124.591 10.676C124.953 10.9933 125.135 11.4013 125.135 11.9V32.266C125.135 32.7647 124.976 33.184 124.659 33.524C124.341 33.8413 123.922 34 123.401 34C122.857 34 122.415 33.8413 122.075 33.524C121.757 33.184 121.599 32.7647 121.599 32.266V15.028L122.687 15.266L115.207 26.656C115.048 26.86 114.844 27.0413 114.595 27.2C114.345 27.336 114.085 27.3927 113.813 27.37C113.563 27.3927 113.303 27.336 113.031 27.2C112.781 27.0413 112.577 26.86 112.419 26.656L105.211 15.436L106.027 14.076V32.266C106.027 32.7647 105.868 33.184 105.551 33.524C105.256 33.8413 104.859 34 104.361 34C103.885 34 103.488 33.8413 103.171 33.524C102.876 33.184 102.729 32.7647 102.729 32.266V11.9C102.729 11.424 102.899 11.016 103.239 10.676C103.601 10.336 104.021 10.166 104.497 10.166ZM133.508 32.266C133.508 32.7647 133.349 33.184 133.032 33.524C132.714 33.8413 132.306 34 131.808 34C131.332 34 130.924 33.8413 130.584 33.524C130.266 33.184 130.108 32.7647 130.108 32.266V17.714C130.108 17.2153 130.266 16.8073 130.584 16.49C130.924 16.15 131.332 15.98 131.808 15.98C132.306 15.98 132.714 16.15 133.032 16.49C133.349 16.8073 133.508 17.2153 133.508 17.714V32.266ZM131.774 13.736C131.116 13.736 130.64 13.6227 130.346 13.396C130.051 13.1467 129.904 12.7387 129.904 12.172V11.628C129.904 11.0613 130.062 10.6647 130.38 10.438C130.697 10.2113 131.173 10.098 131.808 10.098C132.488 10.098 132.975 10.2227 133.27 10.472C133.564 10.6987 133.712 11.084 133.712 11.628V12.172C133.712 12.7613 133.553 13.1693 133.236 13.396C132.941 13.6227 132.454 13.736 131.774 13.736ZM147.295 15.708C148.905 15.708 150.151 16.048 151.035 16.728C151.919 17.3853 152.531 18.2807 152.871 19.414C153.234 20.5247 153.415 21.7713 153.415 23.154V32.266C153.415 32.7647 153.245 33.184 152.905 33.524C152.588 33.8413 152.191 34 151.715 34C151.217 34 150.809 33.8413 150.491 33.524C150.174 33.184 150.015 32.7647 150.015 32.266V23.188C150.015 22.372 149.902 21.6467 149.675 21.012C149.449 20.3547 149.052 19.8333 148.485 19.448C147.941 19.04 147.171 18.836 146.173 18.836C145.244 18.836 144.428 19.04 143.725 19.448C143.023 19.8333 142.467 20.3547 142.059 21.012C141.674 21.6467 141.481 22.372 141.481 23.188V32.266C141.481 32.7647 141.311 33.184 140.971 33.524C140.654 33.8413 140.257 34 139.781 34C139.283 34 138.875 33.8413 138.557 33.524C138.24 33.184 138.081 32.7647 138.081 32.266V17.85C138.081 17.3513 138.24 16.9433 138.557 16.626C138.875 16.286 139.283 16.116 139.781 16.116C140.257 16.116 140.654 16.286 140.971 16.626C141.311 16.9433 141.481 17.3513 141.481 17.85V19.754L140.869 20.094C141.028 19.5953 141.3 19.0967 141.685 18.598C142.093 18.0767 142.581 17.6007 143.147 17.17C143.714 16.7167 144.349 16.3653 145.051 16.116C145.754 15.844 146.502 15.708 147.295 15.708ZM172.79 8.84C173.289 8.84 173.697 8.99867 174.014 9.316C174.331 9.63333 174.49 10.0527 174.49 10.574V32.266C174.49 32.7647 174.331 33.184 174.014 33.524C173.697 33.8413 173.289 34 172.79 34C172.314 34 171.906 33.8413 171.566 33.524C171.249 33.184 171.09 32.7647 171.09 32.266V29.818L171.804 29.852C171.804 30.26 171.634 30.7247 171.294 31.246C170.977 31.7447 170.535 32.232 169.968 32.708C169.401 33.184 168.733 33.5807 167.962 33.898C167.191 34.1927 166.364 34.34 165.48 34.34C163.916 34.34 162.511 33.9433 161.264 33.15C160.017 32.334 159.031 31.2347 158.306 29.852C157.581 28.4467 157.218 26.8373 157.218 25.024C157.218 23.2107 157.581 21.6127 158.306 20.23C159.031 18.8247 160.006 17.7253 161.23 16.932C162.477 16.116 163.859 15.708 165.378 15.708C166.33 15.708 167.214 15.8667 168.03 16.184C168.869 16.5013 169.594 16.9093 170.206 17.408C170.818 17.9067 171.294 18.4393 171.634 19.006C171.974 19.55 172.144 20.0713 172.144 20.57L171.09 20.672V10.574C171.09 10.0753 171.249 9.66733 171.566 9.35C171.906 9.01 172.314 8.84 172.79 8.84ZM165.854 31.212C166.942 31.212 167.883 30.94 168.676 30.396C169.492 29.852 170.127 29.1153 170.58 28.186C171.033 27.2567 171.26 26.2027 171.26 25.024C171.26 23.8453 171.033 22.7913 170.58 21.862C170.127 20.9327 169.492 20.196 168.676 19.652C167.86 19.108 166.919 18.836 165.854 18.836C164.811 18.836 163.882 19.108 163.066 19.652C162.273 20.196 161.638 20.9327 161.162 21.862C160.709 22.7913 160.482 23.8453 160.482 25.024C160.482 26.2027 160.709 27.2567 161.162 28.186C161.638 29.1153 162.273 29.852 163.066 30.396C163.882 30.94 164.811 31.212 165.854 31.212Z" fill="url(#paint0_linear_26_140)"/>
<rect y="41" width="178" height="2" fill="#8A4FFF"/>
<path d="M197.34 18C196.95 18 196.57 18.15 196.27 18.44L194.15 20.56L199.45 25.87L201.57 23.77C202.17 23.16 202.17 22.21 201.57 21.63L198.4 18.44C198.1 18.15 197.72 18 197.34 18ZM193.44 21.27L185.34 29.38L187.9 29.66L188.08 31.95L190.36 32.12L190.65 34.68L198.75 26.57M184.75 30.31L183 37L189.7 35.21L189.46 33.05L187.15 32.88L186.97 30.56" fill="#8A4FFF"/>
<defs>
<linearGradient id="paint0_linear_26_140" x1="60.439" y1="21" x2="137.078" y2="88.3966" gradientUnits="userSpaceOnUse">
<stop offset="0.260417" stop-color="#A77BFF"/>
<stop offset="1" stop-color="#6F3DD1"/>
</linearGradient>
</defs>
</svg>
